<svg xmlns="http://www.w3.org/2000/svg" xmlns:xlink="http://www.w3.org/1999/xlink" version="1.1" x="0px" y="0px" viewBox="0 0 90 112.5" enable-background="new 0 0 90 90" xml:space="preserve"><path d="M82.408,68.773c-9.867,3.879-24.26,4.78-24.26,4.78l0.135,0.131c0.178,0.049,0.84,0.227,1.867,0.479  C75.928,72.307,82.408,68.773,82.408,68.773z"/><path d="M82.721,77.089c-8.213,0.339-18.4-1.9-22.57-2.925c-0.404,0.047-0.811,0.095-1.227,0.14l-0.641-0.62  c-0.031-0.009-0.051-0.014-0.051-0.014l0.371,0.737c0.127,0.085,0.285,0.189,0.455,0.301C75.162,78.35,82.721,77.089,82.721,77.089z  "/><path d="M60.15,74.164c-1.027-0.252-1.689-0.431-1.867-0.479l0.641,0.62C59.34,74.259,59.746,74.211,60.15,74.164z"/><path d="M58.717,74.634l-0.113-0.227c-0.346-0.23-0.533-0.359-0.533-0.359l0.15,1.069c14.23,8.873,21.885,10.158,21.885,10.158  c-8.414-2.521-18.002-8.565-21.047-10.566C58.941,74.682,58.836,74.661,58.717,74.634z"/><path d="M59.059,74.708c-0.17-0.112-0.328-0.216-0.455-0.301l0.113,0.227C58.836,74.661,58.941,74.682,59.059,74.708z"/><path d="M31.443,74.621l0.383-0.729c0,0-0.02,0.005-0.053,0.013l0.139-0.129c0,0-14.375-1.161-24.17-5.217  c0,0,6.418,3.649,22.158,5.792c-4.188,0.949-14.416,3.004-22.621,2.517c0,0,7.533,1.397,23.699-1.952  c-3.082,1.947-12.775,7.815-21.23,10.184c0,0,7.676-1.146,22.064-9.761l0.168-1.066C31.98,74.273,31.791,74.397,31.443,74.621z"/><path d="M61.719,65.141c-1.707-2.23-4.053-4.086-6.82-5.392C74.35,30.854,65.449-0.103,65.449-0.103  C48.08,24.161,48.057,48.244,48.941,57.942c-1.15-0.178-2.336-0.276-3.549-0.276c-1.709,0-3.365,0.186-4.943,0.533  c1.229-26.862-16.758-41.317-16.758-41.317c-4.133,21.865,4.416,37.014,9.912,44.135c-1.801,1.157-3.357,2.568-4.578,4.175  c-3.838,0.813-6.75,4.692-6.75,9.363c0,5.217,3.631,9.448,8.133,9.52C33.959,87.691,39.352,90,45.393,90s11.434-2.309,14.986-5.926  c0.045,0.001,0.088,0.008,0.133,0.008c4.555,0,8.248-4.265,8.248-9.527C68.76,69.768,65.699,65.817,61.719,65.141z M48.225,76.967  c-0.453,0.534-1.027,1.225-1.387,1.802c-0.238,0.386-0.623,1.096-1.299,0.9c-0.508-0.146-0.744-0.653-0.959-1.018  c-0.33-0.564-0.783-1.133-1.146-1.684c-0.281-0.425-0.986-1.034-0.889-1.55c0.16-0.841,1.684-0.502,2.305-0.486  c0.559,0.015,1.691,0.069,2.25,0.036c0.514-0.03,1.299-0.213,1.775,0.058c0.049,0.027,0.092,0.059,0.133,0.095  C49.553,75.609,48.568,76.562,48.225,76.967z"/><text x="0" y="105" fill="#000000" font-size="5px" font-weight="bold" font-family="'Helvetica Neue', Helvetica, Arial-Unicode, Arial, Sans-serif">Created by Marcus Michaels</text><text x="0" y="110" fill="#000000" font-size="5px" font-weight="bold" font-family="'Helvetica Neue', Helvetica, Arial-Unicode, Arial, Sans-serif">from the Noun Project</text></svg>